<mxfile host="app.diagrams.net" modified="2022-04-28T17:02:31.713Z" agent="5.0 (Windows NT 10.0; Win64; x64) AppleWebKit/537.36 (KHTML, like Gecko) Chrome/100.0.4896.127 Safari/537.36" etag="IlaKYMch33G5dbWT0Xkj" version="17.4.6" type="github">
  <diagram id="nomdYBCZ-moeF6U-7X6A" name="Page-1">
    <mxGraphModel dx="2622" dy="1962" grid="1" gridSize="10" guides="1" tooltips="1" connect="1" arrows="1" fold="1" page="0" pageScale="1" pageWidth="827" pageHeight="1169" math="0" shadow="0">
      <root>
        <mxCell id="0" />
        <mxCell id="1" parent="0" />
        <mxCell id="c6Vy-CROt2XTyNM5Ch-J-2" value="AstroMined Labs&lt;br&gt;Headquarters&lt;br&gt;Pittsburgh, PA" style="points=[[0,0],[0.25,0],[0.5,0],[0.75,0],[1,0],[1,0.25],[1,0.5],[1,0.75],[1,1],[0.75,1],[0.5,1],[0.25,1],[0,1],[0,0.75],[0,0.5],[0,0.25]];outlineConnect=0;gradientColor=none;html=1;whiteSpace=wrap;fontSize=12;fontStyle=0;container=1;pointerEvents=0;collapsible=0;recursiveResize=0;shape=mxgraph.aws4.group;grIcon=mxgraph.aws4.group_corporate_data_center;strokeColor=#5A6C86;fillColor=none;verticalAlign=top;align=left;spacingLeft=30;fontColor=#5A6C86;dashed=0;" parent="1" vertex="1">
          <mxGeometry x="-1080" y="-840" width="270" height="280" as="geometry" />
        </mxCell>
        <mxCell id="5G6M97Ru5O6IGqaMy1Rf-36" value="Internet Gateway" style="outlineConnect=0;fontColor=#232F3E;gradientColor=none;fillColor=#232F3E;strokeColor=none;dashed=0;verticalLabelPosition=bottom;verticalAlign=top;align=center;html=1;fontSize=12;fontStyle=0;aspect=fixed;pointerEvents=1;shape=mxgraph.aws4.internet_alt2;" parent="c6Vy-CROt2XTyNM5Ch-J-2" vertex="1">
          <mxGeometry x="130" y="10" width="40" height="40" as="geometry" />
        </mxCell>
        <mxCell id="5G6M97Ru5O6IGqaMy1Rf-23" value="NSX-T Private&lt;br&gt;Cloud Network" style="points=[[0,0],[0.25,0],[0.5,0],[0.75,0],[1,0],[1,0.25],[1,0.5],[1,0.75],[1,1],[0.75,1],[0.5,1],[0.25,1],[0,1],[0,0.75],[0,0.5],[0,0.25]];outlineConnect=0;gradientColor=none;html=1;whiteSpace=wrap;fontSize=12;fontStyle=0;shape=mxgraph.aws4.group;grIcon=mxgraph.aws4.group_vpc;strokeColor=#248814;fillColor=none;verticalAlign=top;align=left;spacingLeft=30;dashed=0;fontColor=#248814;" parent="c6Vy-CROt2XTyNM5Ch-J-2" vertex="1">
          <mxGeometry x="40" y="80" width="160" height="160" as="geometry" />
        </mxCell>
        <mxCell id="c6Vy-CROt2XTyNM5Ch-J-1" value="AWS EKS&lt;br&gt;Anywhere" style="sketch=0;points=[[0,0,0],[0.25,0,0],[0.5,0,0],[0.75,0,0],[1,0,0],[0,1,0],[0.25,1,0],[0.5,1,0],[0.75,1,0],[1,1,0],[0,0.25,0],[0,0.5,0],[0,0.75,0],[1,0.25,0],[1,0.5,0],[1,0.75,0]];outlineConnect=0;fontColor=#232F3E;gradientColor=#F78E04;gradientDirection=north;fillColor=#D05C17;strokeColor=#ffffff;dashed=0;verticalLabelPosition=bottom;verticalAlign=top;align=center;html=1;fontSize=12;fontStyle=0;aspect=fixed;shape=mxgraph.aws4.resourceIcon;resIcon=mxgraph.aws4.eks_anywhere;" parent="c6Vy-CROt2XTyNM5Ch-J-2" vertex="1">
          <mxGeometry x="80" y="120" width="78" height="78" as="geometry" />
        </mxCell>
        <mxCell id="FXeQruwCXEqg5UkFwVaG-40" value="Redundant&lt;br&gt;Elastic&lt;br&gt;Network&lt;br&gt;Adapters" style="sketch=0;outlineConnect=0;fontColor=#232F3E;gradientColor=none;fillColor=#4D27AA;strokeColor=none;dashed=0;verticalLabelPosition=bottom;verticalAlign=top;align=center;html=1;fontSize=12;fontStyle=0;aspect=fixed;pointerEvents=1;shape=mxgraph.aws4.elastic_network_adapter;" vertex="1" parent="c6Vy-CROt2XTyNM5Ch-J-2">
          <mxGeometry x="200" y="58" width="70" height="70" as="geometry" />
        </mxCell>
        <mxCell id="FXeQruwCXEqg5UkFwVaG-41" value="" style="sketch=0;outlineConnect=0;fontColor=#232F3E;gradientColor=none;fillColor=#4D27AA;strokeColor=none;dashed=0;verticalLabelPosition=bottom;verticalAlign=top;align=center;html=1;fontSize=12;fontStyle=0;aspect=fixed;pointerEvents=1;shape=mxgraph.aws4.elastic_network_adapter;" vertex="1" parent="c6Vy-CROt2XTyNM5Ch-J-2">
          <mxGeometry x="200" y="198" width="70" height="70" as="geometry" />
        </mxCell>
        <mxCell id="5G6M97Ru5O6IGqaMy1Rf-37" value="Users" style="outlineConnect=0;fontColor=#232F3E;gradientColor=none;fillColor=#232F3E;strokeColor=none;dashed=0;verticalLabelPosition=bottom;verticalAlign=top;align=center;html=1;fontSize=12;fontStyle=0;aspect=fixed;pointerEvents=1;shape=mxgraph.aws4.users;" parent="1" vertex="1">
          <mxGeometry x="-950" y="-900" width="40" height="40" as="geometry" />
        </mxCell>
        <mxCell id="FXeQruwCXEqg5UkFwVaG-1" value="AWS Cloud" style="points=[[0,0],[0.25,0],[0.5,0],[0.75,0],[1,0],[1,0.25],[1,0.5],[1,0.75],[1,1],[0.75,1],[0.5,1],[0.25,1],[0,1],[0,0.75],[0,0.5],[0,0.25]];outlineConnect=0;gradientColor=none;html=1;whiteSpace=wrap;fontSize=12;fontStyle=0;shape=mxgraph.aws4.group;grIcon=mxgraph.aws4.group_aws_cloud_alt;strokeColor=#232F3E;verticalAlign=top;align=left;spacingLeft=30;fontColor=#232F3E;dashed=0;fillColor=none;" vertex="1" parent="1">
          <mxGeometry x="-1040" y="-480" width="600" height="340" as="geometry" />
        </mxCell>
        <mxCell id="FXeQruwCXEqg5UkFwVaG-2" value="VPC" style="points=[[0,0],[0.25,0],[0.5,0],[0.75,0],[1,0],[1,0.25],[1,0.5],[1,0.75],[1,1],[0.75,1],[0.5,1],[0.25,1],[0,1],[0,0.75],[0,0.5],[0,0.25]];outlineConnect=0;gradientColor=none;html=1;whiteSpace=wrap;fontSize=12;fontStyle=0;shape=mxgraph.aws4.group;grIcon=mxgraph.aws4.group_vpc;strokeColor=#248814;fillColor=none;verticalAlign=top;align=left;spacingLeft=30;dashed=0;fontColor=#248814;" vertex="1" parent="1">
          <mxGeometry x="-1020" y="-400" width="560" height="240" as="geometry" />
        </mxCell>
        <mxCell id="FXeQruwCXEqg5UkFwVaG-27" value="US-East-2&lt;br&gt;Region" style="sketch=0;outlineConnect=0;gradientColor=none;html=1;whiteSpace=wrap;fontSize=12;fontStyle=0;shape=mxgraph.aws4.group;grIcon=mxgraph.aws4.group_region;strokeColor=#879196;fillColor=none;verticalAlign=top;align=left;spacingLeft=30;fontColor=#879196;dashed=1;" vertex="1" parent="1">
          <mxGeometry x="-980" y="-360" width="160" height="160" as="geometry" />
        </mxCell>
        <mxCell id="FXeQruwCXEqg5UkFwVaG-25" value="AWS EKS Cloud" style="sketch=0;points=[[0,0,0],[0.25,0,0],[0.5,0,0],[0.75,0,0],[1,0,0],[0,1,0],[0.25,1,0],[0.5,1,0],[0.75,1,0],[1,1,0],[0,0.25,0],[0,0.5,0],[0,0.75,0],[1,0.25,0],[1,0.5,0],[1,0.75,0]];outlineConnect=0;fontColor=#232F3E;gradientColor=#F78E04;gradientDirection=north;fillColor=#D05C17;strokeColor=#ffffff;dashed=0;verticalLabelPosition=bottom;verticalAlign=top;align=center;html=1;fontSize=12;fontStyle=0;aspect=fixed;shape=mxgraph.aws4.resourceIcon;resIcon=mxgraph.aws4.eks_cloud;" vertex="1" parent="1">
          <mxGeometry x="-940" y="-320" width="78" height="78" as="geometry" />
        </mxCell>
        <mxCell id="FXeQruwCXEqg5UkFwVaG-29" value="GovCloud Region&lt;br&gt;(future expansion)" style="sketch=0;outlineConnect=0;gradientColor=none;html=1;whiteSpace=wrap;fontSize=12;fontStyle=0;shape=mxgraph.aws4.group;grIcon=mxgraph.aws4.group_region;strokeColor=#879196;fillColor=none;verticalAlign=top;align=left;spacingLeft=30;fontColor=#879196;dashed=1;" vertex="1" parent="1">
          <mxGeometry x="-661" y="-360" width="160" height="160" as="geometry" />
        </mxCell>
        <mxCell id="FXeQruwCXEqg5UkFwVaG-28" value="AWS EKS Cloud" style="sketch=0;points=[[0,0,0],[0.25,0,0],[0.5,0,0],[0.75,0,0],[1,0,0],[0,1,0],[0.25,1,0],[0.5,1,0],[0.75,1,0],[1,1,0],[0,0.25,0],[0,0.5,0],[0,0.75,0],[1,0.25,0],[1,0.5,0],[1,0.75,0]];outlineConnect=0;fontColor=#232F3E;gradientColor=#F78E04;gradientDirection=north;fillColor=#D05C17;strokeColor=#ffffff;dashed=0;verticalLabelPosition=bottom;verticalAlign=top;align=center;html=1;fontSize=12;fontStyle=0;aspect=fixed;shape=mxgraph.aws4.resourceIcon;resIcon=mxgraph.aws4.eks_cloud;" vertex="1" parent="1">
          <mxGeometry x="-621" y="-320" width="78" height="78" as="geometry" />
        </mxCell>
        <mxCell id="FXeQruwCXEqg5UkFwVaG-30" value="VPC Peering&lt;br&gt;(future expansion)" style="sketch=0;outlineConnect=0;fontColor=#232F3E;gradientColor=none;fillColor=#4D27AA;strokeColor=none;dashed=0;verticalLabelPosition=bottom;verticalAlign=top;align=center;html=1;fontSize=12;fontStyle=0;aspect=fixed;pointerEvents=1;shape=mxgraph.aws4.peering;" vertex="1" parent="1">
          <mxGeometry x="-778" y="-320" width="78" height="78" as="geometry" />
        </mxCell>
        <mxCell id="FXeQruwCXEqg5UkFwVaG-31" value="" style="edgeStyle=orthogonalEdgeStyle;html=1;endArrow=block;elbow=vertical;startArrow=block;startFill=1;endFill=1;strokeColor=#545B64;rounded=0;fontSize=11;" edge="1" parent="1" source="FXeQruwCXEqg5UkFwVaG-27">
          <mxGeometry width="100" relative="1" as="geometry">
            <mxPoint x="-810" y="-280" as="sourcePoint" />
            <mxPoint x="-778" y="-280" as="targetPoint" />
          </mxGeometry>
        </mxCell>
        <mxCell id="FXeQruwCXEqg5UkFwVaG-33" value="" style="edgeStyle=orthogonalEdgeStyle;html=1;endArrow=block;elbow=vertical;startArrow=block;startFill=1;endFill=1;strokeColor=#545B64;rounded=0;fontSize=11;" edge="1" parent="1">
          <mxGeometry width="100" relative="1" as="geometry">
            <mxPoint x="-820" y="-280" as="sourcePoint" />
            <mxPoint x="-778" y="-280" as="targetPoint" />
          </mxGeometry>
        </mxCell>
        <mxCell id="FXeQruwCXEqg5UkFwVaG-38" value="" style="edgeStyle=orthogonalEdgeStyle;html=1;endArrow=block;elbow=vertical;startArrow=block;startFill=1;endFill=1;strokeColor=#545B64;rounded=0;fontSize=11;" edge="1" parent="1">
          <mxGeometry width="100" relative="1" as="geometry">
            <mxPoint x="-703" y="-280.5" as="sourcePoint" />
            <mxPoint x="-661" y="-280.5" as="targetPoint" />
          </mxGeometry>
        </mxCell>
        <mxCell id="FXeQruwCXEqg5UkFwVaG-42" value="Direct Connect Location&lt;br&gt;Cologix COL2&lt;br&gt;Columbus, Ohio" style="points=[[0,0],[0.25,0],[0.5,0],[0.75,0],[1,0],[1,0.25],[1,0.5],[1,0.75],[1,1],[0.75,1],[0.5,1],[0.25,1],[0,1],[0,0.75],[0,0.5],[0,0.25]];outlineConnect=0;gradientColor=none;html=1;whiteSpace=wrap;fontSize=12;fontStyle=0;container=1;pointerEvents=0;collapsible=0;recursiveResize=0;shape=mxgraph.aws4.group;grIcon=mxgraph.aws4.group_corporate_data_center;strokeColor=#5A6C86;fillColor=none;verticalAlign=top;align=left;spacingLeft=30;fontColor=#5A6C86;dashed=0;" vertex="1" parent="1">
          <mxGeometry x="-680" y="-840" width="280" height="280" as="geometry" />
        </mxCell>
        <mxCell id="FXeQruwCXEqg5UkFwVaG-43" value="" style="sketch=0;outlineConnect=0;fontColor=#232F3E;gradientColor=none;fillColor=#4D27AA;strokeColor=none;dashed=0;verticalLabelPosition=bottom;verticalAlign=top;align=center;html=1;fontSize=12;fontStyle=0;aspect=fixed;pointerEvents=1;shape=mxgraph.aws4.elastic_network_adapter;flipH=1;" vertex="1" parent="FXeQruwCXEqg5UkFwVaG-42">
          <mxGeometry y="198" width="70" height="70" as="geometry" />
        </mxCell>
        <mxCell id="FXeQruwCXEqg5UkFwVaG-44" value="Redundant&lt;br&gt;Elastic&lt;br&gt;Network&lt;br&gt;Adapters" style="sketch=0;outlineConnect=0;fontColor=#232F3E;gradientColor=none;fillColor=#4D27AA;strokeColor=none;dashed=0;verticalLabelPosition=bottom;verticalAlign=top;align=center;html=1;fontSize=12;fontStyle=0;aspect=fixed;pointerEvents=1;shape=mxgraph.aws4.elastic_network_adapter;flipH=1;" vertex="1" parent="FXeQruwCXEqg5UkFwVaG-42">
          <mxGeometry y="58" width="70" height="70" as="geometry" />
        </mxCell>
        <mxCell id="FXeQruwCXEqg5UkFwVaG-47" value="Private subnet" style="points=[[0,0],[0.25,0],[0.5,0],[0.75,0],[1,0],[1,0.25],[1,0.5],[1,0.75],[1,1],[0.75,1],[0.5,1],[0.25,1],[0,1],[0,0.75],[0,0.5],[0,0.25]];outlineConnect=0;gradientColor=none;html=1;whiteSpace=wrap;fontSize=12;fontStyle=0;container=1;pointerEvents=0;collapsible=0;recursiveResize=0;shape=mxgraph.aws4.group;grIcon=mxgraph.aws4.group_security_group;grStroke=0;strokeColor=#147EBA;fillColor=#E6F2F8;verticalAlign=top;align=left;spacingLeft=30;fontColor=#147EBA;dashed=0;" vertex="1" parent="FXeQruwCXEqg5UkFwVaG-42">
          <mxGeometry x="70" y="90" width="160" height="160" as="geometry" />
        </mxCell>
        <mxCell id="FXeQruwCXEqg5UkFwVaG-48" value="AWS Direct&lt;br&gt;Connect" style="sketch=0;points=[[0,0,0],[0.25,0,0],[0.5,0,0],[0.75,0,0],[1,0,0],[0,1,0],[0.25,1,0],[0.5,1,0],[0.75,1,0],[1,1,0],[0,0.25,0],[0,0.5,0],[0,0.75,0],[1,0.25,0],[1,0.5,0],[1,0.75,0]];outlineConnect=0;fontColor=#232F3E;gradientColor=#945DF2;gradientDirection=north;fillColor=#5A30B5;strokeColor=#ffffff;dashed=0;verticalLabelPosition=bottom;verticalAlign=top;align=center;html=1;fontSize=12;fontStyle=0;aspect=fixed;shape=mxgraph.aws4.resourceIcon;resIcon=mxgraph.aws4.direct_connect;" vertex="1" parent="FXeQruwCXEqg5UkFwVaG-47">
          <mxGeometry x="35.5" y="38" width="89" height="89" as="geometry" />
        </mxCell>
        <mxCell id="FXeQruwCXEqg5UkFwVaG-45" value="Fiber Backbone&lt;br&gt;Connections Using&lt;br&gt;APN Provider" style="verticalLabelPosition=bottom;shadow=0;dashed=0;align=center;html=1;verticalAlign=top;shape=mxgraph.electrical.transmission.optical_fiber;fontSize=11;" vertex="1" parent="1">
          <mxGeometry x="-810" y="-790" width="130" height="80" as="geometry" />
        </mxCell>
        <mxCell id="FXeQruwCXEqg5UkFwVaG-46" value="" style="verticalLabelPosition=bottom;shadow=0;dashed=0;align=center;html=1;verticalAlign=top;shape=mxgraph.electrical.transmission.optical_fiber;fontSize=11;" vertex="1" parent="1">
          <mxGeometry x="-810" y="-650" width="130" height="80" as="geometry" />
        </mxCell>
        <mxCell id="FXeQruwCXEqg5UkFwVaG-49" value="AWS Direct&lt;br&gt;Connect" style="sketch=0;points=[[0,0,0],[0.25,0,0],[0.5,0,0],[0.75,0,0],[1,0,0],[0,1,0],[0.25,1,0],[0.5,1,0],[0.75,1,0],[1,1,0],[0,0.25,0],[0,0.5,0],[0,0.75,0],[1,0.25,0],[1,0.5,0],[1,0.75,0]];outlineConnect=0;fontColor=#232F3E;gradientColor=#945DF2;gradientDirection=north;fillColor=#5A30B5;strokeColor=#ffffff;dashed=0;verticalLabelPosition=bottom;verticalAlign=top;align=center;html=1;fontSize=12;fontStyle=0;aspect=fixed;shape=mxgraph.aws4.resourceIcon;resIcon=mxgraph.aws4.direct_connect;" vertex="1" parent="1">
          <mxGeometry x="-769" y="-480" width="60" height="60" as="geometry" />
        </mxCell>
        <mxCell id="FXeQruwCXEqg5UkFwVaG-50" value="&lt;font style=&quot;font-size: 12px&quot;&gt;&lt;b&gt;100 Gbps MACsec&lt;br&gt;Encrypted&lt;br&gt;Connection&lt;/b&gt;&lt;/font&gt;" style="html=1;shadow=0;dashed=0;align=center;verticalAlign=middle;shape=mxgraph.arrows2.twoWayArrow;dy=0.65;dx=22;fontSize=11;rotation=322;" vertex="1" parent="1">
          <mxGeometry x="-711.52" y="-545.37" width="180" height="60" as="geometry" />
        </mxCell>
      </root>
    </mxGraphModel>
  </diagram>
</mxfile>
